<?xml version="1.0" encoding="UTF-8" standalone="no"?>
<svg
   viewBox="0 0 24 24"
   width="24"
   height="24"
   class="light-mode-icon"
   version="1.1"
   id="svg1"
   sodipodi:docname="lightIcon.svg"
   inkscape:version="1.4 (86a8ad7, 2024-10-11)"
   xmlns:inkscape="http://www.inkscape.org/namespaces/inkscape"
   xmlns:sodipodi="http://sodipodi.sourceforge.net/DTD/sodipodi-0.dtd"
   xmlns="http://www.w3.org/2000/svg"
   xmlns:svg="http://www.w3.org/2000/svg">
  <defs
     id="defs1" />
  <sodipodi:namedview
     id="namedview1"
     pagecolor="#ffffff"
     bordercolor="#000000"
     borderopacity="0.25"
     inkscape:showpageshadow="2"
     inkscape:pageopacity="0.0"
     inkscape:pagecheckerboard="0"
     inkscape:deskcolor="#d1d1d1"
     inkscape:zoom="24.416667"
     inkscape:cx="12"
     inkscape:cy="12"
     inkscape:window-width="1440"
     inkscape:window-height="830"
     inkscape:window-x="-6"
     inkscape:window-y="-6"
     inkscape:window-maximized="1"
     inkscape:current-layer="svg1" />
  <path
     d="m 12,19 c -0.55,0 -1,0.45 -1,1 v 2 c 0,0.55 0.45,1 1,1 0.55,0 1,-0.45 1,-1 v -2 c 0,-0.55 -0.45,-1 -1,-1 z"
     style="fill:currentColor"
     id="path14" />
  <path
     d="m 12,19 c 0.55,0 1,0.45 1,1 v 2 c 0,0.55 -0.45,1 -1,1 -0.55,0 -1,-0.45 -1,-1 v -2 c 0,-0.55 0.45,-1 1,-1 z"
     style="fill:currentColor"
     id="path13" />
  <path
     d="m 17.650391,16.658203 c -0.25625,0 -0.511172,0.09602 -0.701172,0.291016 -0.39,0.39 -0.39,1.030156 0,1.410156 l 1.060547,1.060547 c 0.39,0.39 1.030156,0.39 1.410156,0 0.39,-0.39 0.39,-1.030156 0,-1.410156 l -1.060547,-1.060547 c -0.195,-0.195 -0.452734,-0.291016 -0.708984,-0.291016 z"
     style="fill:currentColor"
     id="path12" />
  <path
     d="m 6.3417969,16.658203 c -0.25625,0 -0.5111719,0.09602 -0.7011719,0.291016 l -1.0605469,1.060547 c -0.39,0.39 -0.39,1.030156 0,1.410156 0.39,0.38 1.0301563,0.39 1.4101563,0 l 1.0605468,-1.060547 c 0.39,-0.39 0.3900001,-1.030156 0,-1.410156 -0.195,-0.195 -0.4527343,-0.291016 -0.7089843,-0.291016 z"
     style="fill:currentColor"
     id="path11" />
  <path
     d="m 20,11 c -0.55,0 -1,0.45 -1,1 0,0.55 0.45,1 1,1 h 2 c 0.55,0 1,-0.45 1,-1 0,-0.55 -0.45,-1 -1,-1 z"
     style="fill:currentColor"
     id="path10" />
  <path
     d="m 2,11 c -0.55,0 -1,0.45 -1,1 0,0.55 0.45,1 1,1 H 4 C 4.55,13 5,12.55 5,12 5,11.45 4.55,11 4,11 Z"
     style="fill:currentColor"
     id="path9" />
  <path
     d="m 12,7 c -2.76,0 -5,2.24 -5,5 0,2.76 2.24,5 5,5 2.76,0 5,-2.24 5,-5 0,-2.76 -2.24,-5 -5,-5 z m 0,2 c 1.65,0 3,1.35 3,3 0,1.65 -1.35,3 -3,3 -1.65,0 -3,-1.35 -3,-3 0,-1.65 1.35,-3 3,-3 z"
     style="fill:currentColor"
     id="path7" />
  <path
     d="m 17.650391,16.658203 c -0.25625,0 -0.511172,0.09602 -0.701172,0.291016 -0.39,0.39 -0.39,1.030156 0,1.410156 l 1.060547,1.060547 c 0.39,0.39 1.030156,0.39 1.410156,0 0.39,-0.39 0.39,-1.030156 0,-1.410156 l -1.060547,-1.060547 c -0.195,-0.194996 -0.452734,-0.291016 -0.708984,-0.291016 z"
     style="fill:currentColor"
     id="path17" />
  <path
     d="m 17.650391,16.658203 c 0.25625,0 0.513984,0.09602 0.708984,0.291016 l 1.060547,1.060547 c 0.39,0.38 0.39,1.020156 0,1.410156 -0.38,0.39 -1.020156,0.39 -1.410156,0 l -1.060547,-1.060547 c -0.39,-0.38 -0.39,-1.020156 0,-1.410156 0.19,-0.195 0.444922,-0.291016 0.701172,-0.291016 z"
     style="display:none;fill:currentColor"
     id="path16" />
  <path
     d="m 12,7 c -2.76,0 -5,2.24 -5,5 0,2.76 2.24,5 5,5 2.76,0 5,-2.24 5,-5 0,-2.76 -2.24,-5 -5,-5 z"
     style="display:none;fill:currentColor"
     id="path15" />
  <path
     d="m 18.710937,4.2871094 c -0.25625,0 -0.511171,0.097969 -0.701171,0.2929687 L 16.949219,5.640625 c -0.39,0.39 -0.39,1.0301563 0,1.4101562 0.39,0.38 1.030156,0.3900001 1.410156,0 l 1.060547,-1.0605468 c 0.39,-0.39 0.39,-1.0301563 0,-1.4101563 -0.195,-0.195 -0.452734,-0.2929687 -0.708985,-0.2929687 z"
     style="fill:currentColor"
     id="path5" />
  <path
     d="m 18.710937,4.2871094 c 0.256251,0 0.513985,0.097969 0.708985,0.2929687 0.39,0.38 0.39,1.0201563 0,1.4101563 l -1.060547,1.0605468 c -0.38,0.3900001 -1.020156,0.38 -1.410156,0 -0.39,-0.3799999 -0.39,-1.0201562 0,-1.4101562 l 1.060547,-1.0605469 c 0.19,-0.195 0.444921,-0.2929687 0.701171,-0.2929687 z"
     style="fill:currentColor"
     id="path4" />
  <path
     d="m 5.28125,4.2871094 c -0.25625,0 -0.5111719,0.097969 -0.7011719,0.2929687 -0.39,0.39 -0.39,1.0301563 0,1.4101563 L 5.640625,7.0507812 c 0.39,0.39 1.0301563,0.39 1.4101562,0 0.38,-0.3899999 0.3900001,-1.0301562 0,-1.4101562 L 5.9902344,4.5800781 C 5.7952344,4.3850781 5.5375,4.2871094 5.28125,4.2871094 Z"
     style="fill:currentColor"
     id="path3" />
  <path
     d="m 12,1 c -0.55,0 -1,0.45 -1,1 v 2 c 0,0.55 0.45,1 1,1 0.55,0 1,-0.45 1,-1 V 2 C 13,1.45 12.55,1 12,1 Z"
     style="fill:currentColor"
     id="path2" />
  <path
     d="m 12,9 c -1.65,0 -3,1.35 -3,3 0,1.65 1.35,3 3,3 1.65,0 3,-1.35 3,-3 0,-1.65 -1.35,-3 -3,-3 z"
     style="display:none;opacity:1;fill:currentColor"
     id="path8" />
</svg>
